<?xml version="1.0" encoding="utf-8"?>
<!-- Generator: Adobe Illustrator 26.5.0, SVG Export Plug-In . SVG Version: 6.00 Build 0)  -->
<svg version="1.1" id="Layer_1" xmlns="http://www.w3.org/2000/svg" xmlns:xlink="http://www.w3.org/1999/xlink" x="0px" y="0px"
	 viewBox="0 0 274 73" style="enable-background:new 0 0 274 73;" xml:space="preserve">
<style type="text/css">
	.st0{fill-rule:evenodd;clip-rule:evenodd;fill:#FFFFFF;}
</style>
<path class="st0" d="M54.8,11.4L53.3,21l-6.2,0.8l1.5-9.6L54.8,11.4z M37.3,13.8l-1.5,9.6l-6.2,0.8l1.5-9.6L37.3,13.8z M19.8,16.1
	l-1.5,9.6l-6.2,0.8l1.5-9.6L19.8,16.1z M72.3,9.1l-1.5,9.6l-6.2,0.8l1.5-9.6L72.3,9.1z M9.5,28.8c0.7,0,1.3,0.6,1.3,1.3
	c0,0.7-0.5,1.3-1.3,1.3c-0.7,0-1.3-0.6-1.3-1.3C8.2,29.4,8.8,28.8,9.5,28.8L9.5,28.8z M57.4,29.6l-2.8,9.3h-6.3l2.8-9.3H57.4z
	 M39.7,29.6L37,38.9h-6.2l2.8-9.3H39.7z M22.1,29.6l-2.8,9.3h-6.3l2.8-9.3H22.1z M75,29.6l-2.8,9.3H66l2.8-9.3H75z M19.1,51.1h23.7
	v2H19.1V51.1z M19.1,47.2h30.5v2H19.1V47.2z M55.5,51.9H65c0.5,0,0.9,0.4,0.9,0.9v7.4c0,0.5-0.4,0.9-0.9,0.9h-9.5
	c-0.5,0-0.9-0.4-0.9-0.9v-7.4C54.6,52.3,55,51.9,55.5,51.9L55.5,51.9z M78.1,28.7v33.1c0,2.4-2,4.4-4.4,4.4H13c-2.4,0-4.4-2-4.4-4.4
	v-28c-1.7-0.4-3-1.9-3-3.8c0-1.7,1.1-3.2,2.7-3.7l-0.8-5.7c-0.3-2.4,1.4-4.6,3.7-4.9l60.2-8.2c2.4-0.3,4.6,1.4,4.9,3.8l1.1,8.1
	l-64.7,8.8c0.1,0.2,0.2,0.4,0.3,0.6L78.1,28.7z"/>
</svg>
